<?xml version="1.0" encoding="UTF-8"?>
<svg version="1.1" viewBox="0 0 900 900" width="1280" height="1280" xmlns="http://www.w3.org/2000/svg">
<path transform="translate(0)" d="m0 0h900v900h-900z" fill="#EB2226"/>
<path transform="translate(445,73)" d="m0 0 28 1 23 2 31 5 28 7 27 9 20 8 23 11 10 6 11 6 16 10 18 13 15 13 8 7 12 11 14 14 7 8 9 11 12 16 7 10 7 11 8 14 6 10 12 26 10 26 8 26 6 26 4 24 2 26v35l-1 23-4 31-5 21-8 28-9 24-9 20-10 20-18 30-6-1-9-11-12-13-9-10-7-8-12-14-12-13-7-8-12-14-13-14-7-8-12-14-12-13-7-8-9-10-7-8-9-10-7-8-9-10-7-8-11-12-7-8-2-3 1-5 7-8 11-15 48-64 14-19 15-20 10-16 6-13 3-13v-21l-2-12-6-16-6-11-11-12-9-8-14-8-13-5-13-3h-19l-17 4-16 7-12 8-10 10-8 11-14 19-13 17-14 19-27 36-16 21-14 19-9 13-4 5-3-1-1-3-1-96-1-25-4-16-8-16-5-6v-2h-2l-4-5-11-8-16-8-13-4-11-2h-15l-16 3-16 6-12 7-12 11-9 13-7 14-4 15v428l2 13 5 15 6 11 5 7v2h2l6 7 14 10 14 6 16 4 16 1 19-3 20-8 13-8 7-6 7-9 4-7 4-8 3-8 2-10 1-13v-52l1-60v-25l4-1 5 5 8 9 7 8 1 3h2l9 11 14 15 7 8 6 7v2h2l7 8 9 10 7 8 12 14 3 3v2h2l6 7v2h2l9 11 12 13 7 8 9 10 12 14 11 12 14 16v2h2l14 16v2h2l9 11 9 9 7 8 3 3v4l-16 8-32 14-33 11-25 6-21 4-25 3-15 1h-39l-23-2-25-4-27-6-23-7-21-8-21-9-16-8-18-10-14-9-17-12-13-10-9-8-8-7-24-24-9-11-10-12-8-11-14-21-10-18-8-16-10-22-8-21-6-19-8-34-4-24-2-22v-42l2-23 5-30 8-32 9-27 8-20 8-17 12-22 10-16 11-16 8-10 9-11 9-10 7-8 11-11 8-7 11-10 13-10 8-6 13-9 21-13 21-11 20-9 18-7 25-8 30-7 31-5z" fill="#5328A6"/>
<path transform="translate(445,73)" d="m0 0 28 1 23 2 31 5 28 7 27 9 20 8 23 11 10 6 11 6 16 10 18 13 15 13 8 7 12 11 14 14 7 8 9 11 12 16 7 10 7 11 8 14 6 10 12 26 10 26 8 26 6 26 4 24 2 26v35l-1 23-4 31-5 21-8 28-9 24-9 20-10 20-18 30-6-1-9-11-12-13-9-10-7-8-12-14-12-13-7-8-12-14-13-14-7-8-12-14-12-13-7-8-9-10-7-8-9-10-7-8-9-10-7-8-11-12-7-8-2-3 1-5 7-8 11-15 48-64 14-19 15-20 10-16 6-13 3-13v-21l-2-12-6-16-6-11-11-12-9-8-14-8-13-5-13-3h-19l-17 4-16 7-12 8-10 10-8 11-14 19-13 17-14 19-27 36-16 21-14 19-9 13-4 5-3-1-1-3-1-96-1-25-4-16-8-16-5-6v-2h-2l-4-5-11-8-16-8-13-4-11-2h-15l-16 3-16 6-12 7-12 11-9 13-7 14-4 15v428l2 13 5 15 6 11 5 7v2h2l6 7 14 10 14 6 16 4 16 1 19-3 20-8 13-8 7-6 7-9 4-7 4-8 3-8 2-10 1-13v-52l1-60v-25l4-1 5 5 8 9 7 8 1 3h2l9 11 14 15 7 8 6 7v2h2l7 8 9 10 7 8 12 14 3 3v2h2l6 7v2h2l9 11 12 13 7 8 9 10 12 14 11 12 14 16v2h2l14 16v2h2l9 11 9 9 7 8 3 3v4l-16 8-32 14-33 11-25 6-21 4-25 3-15 1h-39l-23-2-25-4-27-6-23-7-21-8-21-9-16-8-18-10-14-9-17-12-13-10-9-8-8-7-24-24-9-11-10-12-8-11-14-21-10-18-8-16-10-22-8-21-6-19-8-34-4-24-2-22v-42l2-23 5-30 8-32 9-27 8-20 8-17 12-22 10-16 11-16 8-10 9-11 9-10 7-8 11-11 8-7 11-10 13-10 8-6 13-9 21-13 21-11 20-9 18-7 25-8 30-7 31-5zm-7 11-33 3-8 2-17 2-23 6-16 4-31 11-15 7-16 8-15 8-19 12-13 9-13 10-10 9-10 8-19 19-4 5v2h-2l-9 11-5 6v2h-2l-7 11-11 16-12 21-8 16-11 25-11 33-5 23-6 31-2 19v52l3 27 4 25 6 25 10 30 9 21 8 16 12 22 7 10 10 15 13 17 9 11 11 11 7 8 13 12 10 8 14 11 13 10 18 11 27 14 22 10 18 7 26 8 17 4 24 4 27 3h46l28-2 31-5 32-8 26-9 26-11 6-4v-5l-9-10-8-8-7-8-11-14h-2l-2-4-11-12-8-9-5-7-5-5-14-15-8-9-5-7h-2l-2-4-5-5-18-20-5-7-10-10-13-14-9-12-16-16-9-11-13-15-2-2h-3l-2 7-1 51v19l-1 35-1 12-4 15-5 12-7 11-7 9-8 8-10 7-9 5-14 6-15 3h-28l-17-5-15-6-11-7-6-5h-2v-2h-2l-2-4-7-9-9-15-5-14-3-19-1-51v-279l1-99 3-13 3-7 6-12 11-16 9-10 13-9 18-8 22-5h13l17 3 18 6 15 8 10 8 5 5 3 1 2 5 5 7 9 20 4 13 2 30v35l1 21 3 5h2l5-5v-2l4-2 1-3h2l10-14 4-4 6-9 6-7 1-4h2l3-5 1-3 3-1 7-10v-2h2l8-11 2-5h2l7-10 2-1 4-7 5-6v-3h2l6-8 5-6v-2h2l5-8 6-5 3-3 14-8 12-5 9-3 7-1h19l14 2 12 4 17 8 14 10 5 5 9 11 6 10 8 18 2 7v34l-2 11-5 13-6 11-8 12-10 13-24 33v2h-2l-6 9-13 17-9 12-14 19-11 15v5l9 10 7 8 3 4h2l2 4 11 12 7 8 11 12 7 8 12 14 11 12 1 2h2l2 4 12 14 14 15 2 3h2l2 4 9 10 7 8 11 12 1 2h2l2 4 11 12 8 10 12 12 6 1 7-6 1-5h2l14-27 11-27 7-23 5-21 3-13 3-22 2-36v-30l-2-35-2-9-3-19-5-21-10-29-9-20-2-5-7-15-15-26-9-14-13-17-10-12-7-8-12-12-8-7-11-10-10-8-13-10-18-13-15-9-8-5-14-7-15-7-29-11-27-8-23-5-24-4-27-2z" fill="#0C3E93"/>
<path transform="translate(0)" d="m0 0h900v900h-900zm41 4-36 1-1 1v892h893l1-2v-891l-1-1z" fill="#462AA3"/>
<path transform="translate(899,4)" d="m0 0h1v896h-896l-1-2 3-1h886l5 1 1-893z" fill="#AF9AAD"/>
<path transform="translate(899,4)" d="m0 0h1v896l-3-1 1-894z" fill="#AE99AC"/>
<path transform="translate(396,212)" d="m0 0 2 2 4 14 2 23v89l1 13 2-1 3-5 3-2-2 4-4 6h-4l-1-3-1-96-1-25-4-16z" fill="#5328A6"/>
<path transform="translate(403,519)" d="m0 0 5 1-4 2v31l-1 111-3 17-2 4-1-2 3-13 1-13v-52l1-60v-25z" fill="#5328A6"/>
<path transform="translate(413,559)" d="m0 0h1v65l-1 35-1 12-2 3v-20l1-27v-33z" fill="#21319D"/>
<path transform="translate(200,168)" d="m0 0v3l-29 29-2-1 12-13 9-9 8-7z" fill="#37319E"/>
<path transform="translate(584,399)" d="m0 0v3l-13 18-7 10-3 2v5l3 3-1 2-5-6 1-5 7-8 11-15z" fill="#5328A6"/>
<path transform="translate(326,748)" d="m0 0h7l-4 3h-23l-1-2z" fill="#AF9AAD"/>
<path transform="translate(752,653)" d="m0 0 7 6h5l-1 3-6-1-5-6z" fill="#5328A6"/>
<path transform="translate(428,309)" d="m0 0v3l-4 5-4 3-3-1h2l1-3z" fill="#21319D"/>
</svg>
