<?xml version="1.0" encoding="UTF-8"?>
<svg version="1.1" viewBox="0 0 900 900" width="1280" height="1280" xmlns="http://www.w3.org/2000/svg">
<path transform="translate(0)" d="m0 0h900v900h-900z" fill="#EC2426"/>
<path transform="translate(441,85)" d="m0 0h20l44 4 35 7 24 7 20 7 23 10 16 8 19 11 15 10 19 14 13 11 10 9 27 27 9 11 10 13 12 17 13 22 12 23 11 27 8 24 6 24 5 28 3 27v48l-4 34-5 26-7 25-7 21-13 30-10 19-9 14-2 1-8-11-13-13-9-11-12-13-10-11-9-11-14-15-9-10-9-11-13-14-7-8-12-14-13-14v-2h-2l-9-11-12-13-7-8-2-4h-2l-9-11-3-3 1-5 12-16 14-19 16-21 8-11 36-48 11-16 7-14 4-13 3-16v-13l-4-20-5-13-8-14-8-10-5-6-10-8-14-8-13-6-17-4h-25l-15 3-15 6-14 8-13 12-7 8-12 16-14 19-12 16-28 38-16 21-11 15-3 4h-2l-1-81-3-18-5-14-8-15-10-13-9-8-14-9-16-7-18-4h-25l-15 3-16 6-15 9-10 9-9 10-8 13-6 14-3 12-1 8v426l2 14 4 13 8 16 10 13 9 9 14 9 12 6 17 5 6 1h26l18-4 17-7 11-7 12-11 8-9 9-16 6-18 2-15 1-112h3l4 5v2h2l7 8 9 10 9 11 8 8 9 11 13 14 7 8 10 11 9 11 13 14 7 8 9 10 9 11 7 7 7 8 9 10 9 11 13 14 9 11 10 11 7 8 2 2v3l-27 12-31 11-27 7-28 5-29 3h-48l-28-3-29-5-30-8-27-10-24-11-21-11-24-15-17-13-11-9-12-11-10-9-7-7v-2h-2v-2h-2l-7-8-13-16-14-19-12-19-10-18-12-25-10-27-6-20-6-26-4-26-2-22v-45l3-28 4-23 7-28 10-30 10-23 8-16 10-18 12-18 10-14 11-14 16-17 5-6 8-7 9-9 11-9 10-8 14-10 17-11 21-12 21-10 25-10 29-9 23-5 25-4z" fill="#FEFDFD"/>
<path transform="translate(432,74)" d="m0 0h39l18 1 37 6 26 6 36 12 33 15 25 14 21 14 16 12 10 9 10 8 10 10 6 5 7 8 11 11 10 13 8 10 10 15 10 16 10 18 12 25 10 26 8 27 6 27 4 23 2 25v36l-2 29-5 29-5 22-7 23-8 22-11 24-13 25-10 16-2 5-5 1-14-16-22-24-9-11-15-16-7-8-12-14-12-13-7-8-13-15-11-12-7-8-9-10-7-8-9-10-10-11-9-11-14-15-9-10-5-7 2-4 6-7 10-14 9-12 11-15 10-13 3-5h2l2-5 7-9 1-2h2l2-5 13-17 12-16 11-16 8-16 5-17v-19l-3-15-5-13-6-11-12-14-10-8-14-8-11-4-13-3h-21l-14 3-15 6-12 7-9 8-11 14-12 16-11 15-48 64-28 38-12 17-3 1-2-7v-108l-2-15-5-15-7-12-7-9-7-7-14-9-11-5-9-3-11-2h-19l-19 4-15 6-11 7-8 7-11 15-7 15-4 15v431l3 15 5 13 8 13 9 10 10 8 17 9 14 4 8 1h15l17-3 16-6 14-8 10-9 9-12 6-12 4-13 2-12v-141l5-1 10 11v2h2l7 8 10 11 9 11 12 13 7 8 12 14 11 12 7 8 9 10 9 11 5 5v2h2l7 8 12 14 9 10v2h2l7 8 9 10 9 11 14 15 9 11 12 13v2h2l7 8 11 12v2l4 2 2 5-4 3-33 15-20 8-29 9-26 6-33 5-23 2h-36l-24-2-26-4-25-6-21-6-24-9-25-11-25-13-13-8-12-8-11-8-13-10-13-11-32-32-9-11-13-17-14-21-10-17-15-30-12-30-8-27-5-21-4-23-3-27-1-20v-14l2-31 5-29 5-22 8-28 8-22 5-11 11-23 12-22 8-12 9-13 11-15h2l2-4 9-10 9-11 7-7 8-7 7-7 11-9 17-13 13-9 19-12 20-11 24-11 24-9 28-8 28-6 28-4zm9 11-36 3-25 4-23 5-29 9-20 8-22 10-22 12-14 9-16 11-13 10-10 9-16 14-7 8-10 10-7 8-8 10-11 15-10 15-9 15-9 16-12 27-10 28-8 31-4 20-3 23-1 12v45l3 29 4 24 6 25 10 30 10 24 11 22 14 23 10 14 10 13 13 16 5 6h2v2h2l2 4 12 12 8 7 10 9 17 13 16 11 13 8 18 10 25 12 29 11 25 7 24 5 29 4 12 1h48l36-4 34-7 29-9 20-8 23-10-1-4-7-7-9-11-10-11-7-8-9-10-11-13-11-12-7-8-9-10-9-11-7-7-7-8-12-14-11-12-7-8-9-10-7-8-12-14-7-7-9-11-13-14-1-2h-2l-2-4-2-3h-3l-1 112-2 15-6 18-9 16-11 12-9 8-13 8-15 6-18 4h-26l-17-4-15-6-14-9-10-9-8-9-10-17-5-14-2-9-1-9v-426l3-17 6-15 7-12 9-11 9-9 16-10 15-6 11-3 7-1h25l18 4 16 7 11 7 11 9 9 11 8 14 6 14 3 14 1 8 1 81 4-2 9-13 14-18 28-38 12-16 28-38 9-11 9-9 10-7 16-8 16-5 7-1h25l17 4 21 10 11 8 6 5 9 11 7 10 7 15 4 14 2 12v13l-4 20-6 16-6 10-10 14-24 32-14 19-13 17-28 38-7 9 1 5 10 11 1 2h2l2 4 14 15 9 11 5 6h2l2 4 14 15 9 11 15 16 9 11 12 13 7 8 11 12 9 11 15 16 12 14 9 10 8 8 6 9 5-5 14-25 11-24 9-24 8-28 5-24 4-29 1-11v-48l-3-27-5-28-7-27-8-24-12-28-12-23-13-21-11-15-10-13-12-14-30-30-11-9-18-14-18-12-17-10-23-12-26-11-28-9-25-6-21-4-44-4z" fill="#044495"/>
<path transform="translate(0)" d="m0 0h900v900h-900zm3 3v893l1 1 74 1h783l37-1v-888l-1-6z" fill="#FEFDFD"/>
</svg>
